<?xml version="1.0" standalone="no"?>
<!DOCTYPE svg PUBLIC "-//W3C//DTD SVG 20010904//EN"
 "http://www.w3.org/TR/2001/REC-SVG-20010904/DTD/svg10.dtd">
<svg version="1.0" xmlns="http://www.w3.org/2000/svg"
 width="425.000000pt" height="410.000000pt" viewBox="0 0 425.000000 410.000000"
 preserveAspectRatio="xMidYMid meet">
<metadata>
Created by potrace 1.16, written by Peter Selinger 2001-2019
</metadata>
<g transform="translate(0.000000,410.000000) scale(0.100000,-0.100000)"
fill="#000000" stroke="none">
<path d="M3410 4084 c-52 -7 -558 -74 -1125 -149 -1061 -140 -1285 -172 -1585
-230 -193 -37 -492 -105 -584 -133 -59 -17 -60 -19 -78 -70 -29 -84 -41 -189
-35 -312 3 -63 50 -455 106 -870 88 -664 146 -1096 272 -2054 l33 -248 76 6
c41 4 104 11 140 17 56 8 199 27 520 69 41 5 127 16 190 25 63 8 149 20 190
25 41 6 158 21 260 34 102 14 277 37 390 51 661 84 1172 242 1575 486 163 99
323 231 398 330 l28 37 -37 62 c-84 143 -180 383 -233 578 -36 131 -87 365
-101 458 -9 65 -80 583 -100 739 -18 137 -61 461 -70 530 -22 163 -42 315 -50
380 -17 130 -30 220 -36 238 -6 20 -13 20 -144 1z m110 -31 c0 -5 5 -37 10
-73 5 -36 57 -425 115 -865 117 -893 126 -952 161 -1115 61 -287 145 -537 255
-758 l71 -144 -29 -36 c-88 -110 -320 -278 -528 -384 -406 -206 -793 -311
-1480 -402 -1382 -183 -1639 -216 -1645 -209 -4 4 -24 136 -44 293 -43 328
-40 304 -226 1706 -104 792 -140 1087 -140 1166 0 104 19 239 39 276 7 13 41
27 113 45 408 105 814 176 1538 272 234 31 722 96 1085 144 711 95 705 95 705
84z"/>
</g>
</svg>
