<?xml version="1.0" standalone="no"?>
<!DOCTYPE svg PUBLIC "-//W3C//DTD SVG 20010904//EN"
 "http://www.w3.org/TR/2001/REC-SVG-20010904/DTD/svg10.dtd">
<svg version="1.0" xmlns="http://www.w3.org/2000/svg"
 width="225.000000pt" height="225.000000pt" viewBox="0 0 225.000000 225.000000"
 preserveAspectRatio="xMidYMid meet">
<metadata>
Created by potrace 1.16, written by Peter Selinger 2001-2019
</metadata>
<g transform="translate(0.000000,225.000000) scale(0.100000,-0.100000)"
fill="#000000" stroke="none">
<path d="M231 1789 c-100 -50 -147 -131 -139 -238 10 -127 94 -218 233 -250
28 -6 118 -20 201 -30 178 -23 217 -36 241 -85 14 -30 15 -41 4 -77 -16 -53
-60 -73 -196 -89 -256 -30 -328 -49 -393 -104 -75 -64 -109 -176 -81 -273 19
-71 98 -146 174 -169 144 -41 297 27 355 159 17 39 21 63 18 135 -3 81 -1 92
23 128 28 42 111 93 183 113 49 13 275 -24 997 -160 251 -48 268 -50 302 -36
19 9 40 25 47 36 14 27 45 15 -440 163 -217 66 -402 122 -410 125 -8 3 14 14
50 25 467 142 787 241 799 248 12 6 9 14 -18 40 -30 30 -36 32 -84 27 -29 -2
-187 -30 -352 -61 -483 -91 -827 -148 -866 -143 -96 13 -227 104 -230 160 -1
12 -2 60 -3 107 -1 98 -17 139 -78 199 -51 51 -129 81 -212 81 -50 0 -75 -6
-125 -31z m237 -90 c132 -65 131 -249 -2 -310 -50 -23 -95 -24 -144 -4 -75 32
-114 90 -114 167 0 128 138 206 260 147z m1696 -250 c15 -12 24 -25 19 -29 -9
-9 -461 -148 -853 -264 -183 -54 -256 -72 -261 -64 -4 7 -11 33 -14 59 -7 53
10 99 48 124 13 8 174 42 358 75 183 33 399 73 479 89 178 36 191 36 224 10z
m-603 -390 c361 -109 623 -190 629 -196 3 -3 -6 -13 -19 -24 -30 -24 -73 -24
-203 1 -116 23 -593 111 -737 135 -52 9 -107 23 -122 31 -35 18 -56 52 -37 59
55 20 208 63 229 64 15 0 132 -31 260 -70z m-1097 -163 c43 -18 93 -80 101
-126 14 -81 -34 -160 -117 -194 -47 -20 -79 -20 -126 -1 -72 31 -114 89 -114
160 0 126 136 211 256 161z"/>
</g>
</svg>
